<svg xmlns="http://www.w3.org/2000/svg" xmlns:xlink="http://www.w3.org/1999/xlink" width="300" zoomAndPan="magnify" viewBox="0 0 224.87999 225" height="300" preserveAspectRatio="xMidYMid meet" version="1.0"><defs><clipPath id="5078f54e92"><path d="M 17.191406 17.25 L 202.34375 17.25 L 202.34375 202.402344 L 17.191406 202.402344 Z M 17.191406 17.25 " clip-rule="nonzero"/></clipPath></defs><g clip-path="url(#5078f54e92)"><path fill="#eff0f2" d="M 188.269531 202.402344 L 31.261719 202.402344 C 23.484375 202.402344 17.191406 196.105469 17.191406 188.332031 L 17.191406 31.324219 C 17.191406 23.546875 23.484375 17.25 31.261719 17.25 L 188.269531 17.25 C 196.046875 17.25 202.34375 23.546875 202.34375 31.324219 L 202.34375 188.332031 C 202.34375 196.105469 196.046875 202.402344 188.269531 202.402344 Z M 31.261719 22.804688 C 26.632812 22.804688 22.746094 26.695312 22.746094 31.324219 L 22.746094 188.332031 C 22.746094 192.960938 26.449219 196.664062 31.078125 196.664062 L 188.085938 196.664062 C 192.714844 196.664062 196.417969 192.960938 196.417969 188.332031 L 196.417969 31.324219 C 196.417969 26.695312 192.714844 22.992188 188.085938 22.992188 Z M 31.261719 22.804688 " fill-opacity="1" fill-rule="nonzero"/></g><path fill="#eff0f2" d="M 120.320312 144.820312 L 86.066406 109.269531 L 120.320312 74.832031 L 128.28125 82.792969 L 101.804688 109.457031 L 128.46875 137.042969 Z M 120.320312 144.820312 " fill-opacity="1" fill-rule="nonzero"/></svg>