<svg xmlns="http://www.w3.org/2000/svg" xmlns:xlink="http://www.w3.org/1999/xlink" width="1000" zoomAndPan="magnify" viewBox="0 0 750 749.999995" height="1000" preserveAspectRatio="xMidYMid meet" version="1.0"><defs><clipPath id="cce370a0a1"><path d="M 622 29.53125 L 644 29.53125 L 644 51 L 622 51 Z M 622 29.53125 " clip-rule="nonzero"/></clipPath><clipPath id="6975bffb00"><path d="M 285 686 L 319 686 L 319 720.28125 L 285 720.28125 Z M 285 686 " clip-rule="nonzero"/></clipPath></defs><path fill="#ffffff" d="M 730.214844 385.597656 L 736.320312 397.960938 L 749.984375 399.941406 L 740.101562 409.578125 L 742.425781 423.183594 L 730.214844 416.753906 L 718.007812 423.183594 L 720.332031 409.578125 L 710.460938 399.941406 L 724.113281 397.960938 Z M 730.214844 385.597656 " fill-opacity="1" fill-rule="nonzero"/><path fill="#ffffff" d="M 19.753906 106.929688 L 25.871094 119.308594 L 39.523438 121.292969 L 29.636719 130.914062 L 31.976562 144.515625 L 19.753906 138.101562 L 7.546875 144.515625 L 9.882812 130.914062 L 0 121.292969 L 13.648438 119.308594 Z M 19.753906 106.929688 " fill-opacity="1" fill-rule="nonzero"/><path fill="#ffffff" d="M 168.792969 337.476562 L 174.898438 349.839844 L 188.546875 351.839844 L 178.660156 361.460938 L 181 375.0625 L 168.792969 368.632812 L 156.570312 375.0625 L 158.910156 361.460938 L 149.023438 351.839844 L 162.671875 349.839844 Z M 168.792969 337.476562 " fill-opacity="1" fill-rule="nonzero"/><path fill="#ffffff" d="M 384.992188 325.113281 L 391.097656 337.492188 L 404.746094 339.476562 L 394.878906 349.113281 L 397.199219 362.699219 L 384.992188 356.285156 L 372.785156 362.699219 L 375.109375 349.113281 L 365.222656 339.476562 L 378.886719 337.492188 Z M 384.992188 325.113281 " fill-opacity="1" fill-rule="nonzero"/><path fill="#ffffff" d="M 505.449219 559.859375 L 511.550781 572.222656 L 525.203125 574.21875 L 515.332031 583.839844 L 517.65625 597.445312 L 505.449219 591.015625 L 493.238281 597.445312 L 495.5625 583.839844 L 485.695312 574.21875 L 499.34375 572.222656 Z M 505.449219 559.859375 " fill-opacity="1" fill-rule="nonzero"/><path fill="#ffffff" d="M 22.773438 136.152344 L 24.453125 135.042969 L 164.324219 346.769531 L 162.644531 347.878906 Z M 22.773438 136.152344 " fill-opacity="1" fill-rule="nonzero"/><path fill="#ffffff" d="M 166.867188 355.503906 L 383.8125 343.105469 L 383.929688 345.117188 L 166.980469 357.511719 Z M 166.867188 355.503906 " fill-opacity="1" fill-rule="nonzero"/><path fill="#ffffff" d="M 387.320312 355.117188 L 389.113281 354.199219 L 504.632812 580.136719 L 502.839844 581.054688 Z M 387.320312 355.117188 " fill-opacity="1" fill-rule="nonzero"/><path fill="#ffffff" d="M 514.417969 574.644531 L 731.910156 403.617188 L 733.15625 405.199219 L 515.660156 576.226562 Z M 514.417969 574.644531 " fill-opacity="1" fill-rule="nonzero"/><path fill="#ffffff" d="M 672.039062 96.269531 C 658.128906 96.269531 655.152344 93.296875 655.152344 79.382812 C 655.152344 93.296875 652.179688 96.269531 638.265625 96.269531 C 652.179688 96.269531 655.152344 99.246094 655.152344 113.160156 C 655.152344 99.246094 658.128906 96.269531 672.039062 96.269531 Z M 672.039062 96.269531 " fill-opacity="1" fill-rule="nonzero"/><g clip-path="url(#cce370a0a1)"><path fill="#ffffff" d="M 643.164062 40.390625 C 634.457031 40.390625 632.597656 38.53125 632.597656 29.824219 C 632.597656 38.53125 630.738281 40.390625 622.03125 40.390625 C 630.738281 40.390625 632.597656 42.25 632.597656 50.957031 C 632.597656 42.25 634.457031 40.390625 643.164062 40.390625 Z M 643.164062 40.390625 " fill-opacity="1" fill-rule="nonzero"/></g><path fill="#ffffff" d="M 644.199219 71.777344 C 617.257812 71.777344 606.226562 60.761719 606.226562 33.804688 C 606.226562 60.746094 595.210938 71.777344 568.253906 71.777344 C 595.195312 71.777344 606.226562 82.792969 606.226562 109.75 C 606.226562 82.808594 617.242188 71.777344 644.199219 71.777344 Z M 644.199219 71.777344 " fill-opacity="1" fill-rule="nonzero"/><path fill="#ffffff" d="M 534.835938 113.949219 C 528.253906 113.949219 526.84375 112.539062 526.84375 105.953125 C 526.84375 112.539062 525.433594 113.949219 518.847656 113.949219 C 525.433594 113.949219 526.84375 115.359375 526.84375 121.941406 C 526.84375 115.359375 528.253906 113.949219 534.835938 113.949219 Z M 534.835938 113.949219 " fill-opacity="1" fill-rule="nonzero"/><g clip-path="url(#6975bffb00)"><path fill="#ffffff" d="M 318.871094 703.226562 C 304.957031 703.226562 301.984375 700.253906 301.984375 686.339844 C 301.984375 700.253906 299.007812 703.226562 285.097656 703.226562 C 299.007812 703.226562 301.984375 706.203125 301.984375 720.113281 C 301.984375 706.203125 304.957031 703.226562 318.871094 703.226562 Z M 318.871094 703.226562 " fill-opacity="1" fill-rule="nonzero"/></g><path fill="#ffffff" d="M 344.371094 679.664062 C 337.785156 679.664062 336.375 678.253906 336.375 671.667969 C 336.375 678.253906 334.96875 679.664062 328.382812 679.664062 C 334.96875 679.664062 336.375 681.074219 336.375 687.65625 C 336.375 681.074219 337.785156 679.664062 344.371094 679.664062 Z M 344.371094 679.664062 " fill-opacity="1" fill-rule="nonzero"/><path fill="#ffffff" d="M 150.992188 103.367188 C 145.585938 103.367188 144.4375 102.207031 144.4375 96.8125 C 144.4375 102.21875 143.277344 103.367188 137.882812 103.367188 C 143.292969 103.367188 144.4375 104.527344 144.4375 109.921875 C 144.4375 104.511719 145.601562 103.367188 150.992188 103.367188 Z M 150.992188 103.367188 " fill-opacity="1" fill-rule="nonzero"/><path fill="#ffffff" d="M 149.195312 122.839844 C 137.375 122.839844 132.539062 118.007812 132.539062 106.1875 C 132.539062 118.007812 127.707031 122.839844 115.886719 122.839844 C 127.707031 122.839844 132.539062 127.675781 132.539062 139.496094 C 132.539062 127.675781 137.375 122.839844 149.195312 122.839844 Z M 149.195312 122.839844 " fill-opacity="1" fill-rule="nonzero"/><path fill="#ffffff" d="M 120.703125 116.550781 C 116.613281 116.550781 115.746094 115.683594 115.746094 111.59375 C 115.746094 115.683594 114.878906 116.550781 110.789062 116.550781 C 114.878906 116.550781 115.746094 117.417969 115.746094 121.507812 C 115.746094 117.417969 116.613281 116.550781 120.703125 116.550781 Z M 120.703125 116.550781 " fill-opacity="1" fill-rule="nonzero"/><path fill="#ffffff" d="M 97.742188 562.632812 C 98.238281 551.695312 100.6875 549.460938 111.625 549.957031 C 100.6875 549.460938 98.457031 547.015625 98.953125 536.078125 C 98.457031 547.015625 96.007812 549.246094 85.070312 548.75 C 96.007812 549.246094 98.238281 551.695312 97.742188 562.632812 Z M 97.742188 562.632812 " fill-opacity="1" fill-rule="nonzero"/><path fill="#ffffff" d="M 58.5 557.195312 C 59.585938 533.273438 69.808594 523.929688 93.730469 525 C 69.808594 523.914062 60.46875 513.691406 61.535156 489.769531 C 60.453125 513.691406 50.226562 523.03125 26.304688 521.964844 C 50.226562 523.046875 59.570312 533.273438 58.5 557.195312 Z M 58.5 557.195312 " fill-opacity="1" fill-rule="nonzero"/><path fill="#ffffff" d="M 73.824219 500.117188 C 74.195312 491.859375 76.039062 490.171875 84.3125 490.542969 C 76.054688 490.171875 74.363281 488.328125 74.738281 480.054688 C 74.363281 488.3125 72.519531 490.003906 64.25 489.628906 C 72.503906 490.003906 74.195312 491.84375 73.824219 500.117188 Z M 73.824219 500.117188 " fill-opacity="1" fill-rule="nonzero"/><path fill="#ffffff" d="M 654.640625 592.066406 C 640.730469 592.066406 637.753906 589.09375 637.753906 575.179688 C 637.753906 589.09375 634.78125 592.066406 620.867188 592.066406 C 634.78125 592.066406 637.753906 595.042969 637.753906 608.953125 C 637.753906 595.042969 640.730469 592.066406 654.640625 592.066406 Z M 654.640625 592.066406 " fill-opacity="1" fill-rule="nonzero"/><path fill="#ffffff" d="M 680.128906 568.503906 C 673.542969 568.503906 672.132812 567.09375 672.132812 560.507812 C 672.132812 567.09375 670.722656 568.503906 664.140625 568.503906 C 670.722656 568.503906 672.132812 569.914062 672.132812 576.496094 C 672.132812 569.914062 673.542969 568.503906 680.128906 568.503906 Z M 680.128906 568.503906 " fill-opacity="1" fill-rule="nonzero"/><path fill="#ffffff" d="M 703.832031 592.097656 C 698.425781 592.097656 697.277344 590.9375 697.277344 585.546875 C 697.277344 590.953125 696.117188 592.097656 690.726562 592.097656 C 696.132812 592.097656 697.277344 593.261719 697.277344 598.652344 C 697.277344 593.246094 698.441406 592.097656 703.832031 592.097656 Z M 703.832031 592.097656 " fill-opacity="1" fill-rule="nonzero"/><path fill="#ffffff" d="M 702.019531 611.574219 C 690.199219 611.574219 685.363281 606.738281 685.363281 594.917969 C 685.363281 606.738281 680.53125 611.574219 668.710938 611.574219 C 680.53125 611.574219 685.363281 616.40625 685.363281 628.226562 C 685.363281 616.40625 690.199219 611.574219 702.019531 611.574219 Z M 702.019531 611.574219 " fill-opacity="1" fill-rule="nonzero"/><path fill="#ffffff" d="M 673.527344 605.28125 C 669.4375 605.28125 668.570312 604.414062 668.570312 600.324219 C 668.570312 604.414062 667.703125 605.28125 663.613281 605.28125 C 667.703125 605.28125 668.570312 606.152344 668.570312 610.242188 C 668.570312 606.152344 669.4375 605.28125 673.527344 605.28125 Z M 673.527344 605.28125 " fill-opacity="1" fill-rule="nonzero"/></svg>