<svg xmlns="http://www.w3.org/2000/svg" xmlns:xlink="http://www.w3.org/1999/xlink" width="1000" zoomAndPan="magnify" viewBox="0 0 750 749.999995" height="1000" preserveAspectRatio="xMidYMid meet" version="1.0"><path fill="#5ce1e6" d="M 619.605469 580.902344 C 619.605469 580.875 619.621094 580.84375 619.621094 580.816406 C 619.621094 580.84375 619.605469 580.875 619.605469 580.902344 " fill-opacity="1" fill-rule="nonzero"/><path fill="#5ce1e6" d="M 702.3125 397.015625 C 693.882812 398.257812 685.339844 395.53125 676.964844 394.539062 C 672.53125 393.742188 668.183594 391.828125 663.707031 391.617188 C 663.023438 379.257812 662.730469 366.855469 663.875 354.144531 C 669.679688 352.664062 675.886719 356.003906 681.355469 357.78125 C 689.410156 362.339844 697.574219 363.304688 703.894531 355.234375 C 710.535156 349.070312 709.527344 338.695312 714.953125 331.816406 C 717.609375 328.792969 722.589844 331.480469 725.957031 331.941406 C 733.3125 334.402344 734.402344 344.441406 735.746094 351.097656 C 737.4375 371.316406 722.042969 392.261719 702.3125 397.015625 M 636.304688 304.351562 C 632.738281 347.699219 630.375 391.210938 629.957031 434.710938 C 629.382812 436.527344 629.367188 439.785156 629.4375 440.976562 C 629.941406 462.523438 626.640625 483.957031 625.816406 505.476562 C 625.132812 530.6875 624.78125 556.050781 619.609375 580.828125 C 618.628906 584.742188 618.910156 588.867188 619.761719 592.839844 C 619.664062 592.460938 619.582031 592.042969 619.480469 591.691406 C 617.707031 594.878906 618.601562 598.558594 618.726562 602.011719 C 613.316406 604.753906 606.714844 604.90625 600.703125 605.269531 C 591.183594 605.925781 581.660156 606.90625 572.097656 606.988281 L 572.429688 606.988281 C 570.964844 607.003906 569.300781 607.015625 567.761719 607.046875 C 531.785156 607.015625 495.542969 606.820312 459.914062 613.085938 C 459.96875 613.085938 460.027344 613.070312 460.082031 613.070312 C 437.808594 615.785156 415.410156 621.113281 395.230469 631.011719 C 398.785156 628.59375 401.746094 626.566406 402.9375 626.046875 C 419.632812 616.511719 439.039062 613.449219 455.328125 603.019531 C 469.617188 597.144531 485.292969 597.0625 500.464844 595.941406 C 532.875 590.742188 565.59375 588.210938 598.425781 591.679688 C 604.492188 592.546875 611.246094 592.867188 616.617188 589.554688 C 611.917969 586.476562 606.703125 583.988281 600.984375 583.945312 C 578.863281 582.058594 556.40625 581.441406 534.230469 583.554688 C 517.453125 585.597656 500.769531 587.414062 483.851562 587.777344 C 464.710938 587.734375 447.890625 596.558594 430.59375 603.480469 C 413.746094 609.113281 397.75 617.292969 384.507812 629.332031 C 380.871094 632.339844 376.480469 635.011719 373.308594 638.601562 C 373.78125 626.96875 374.875 615.058594 375.097656 603.339844 C 375.222656 595.875 375.027344 588.390625 374.875 580.910156 C 381.640625 579.511719 388.632812 577.191406 393.398438 572.285156 C 402.152344 561.15625 389.777344 550.023438 378.800781 547.898438 C 378.59375 547.871094 378.339844 547.855469 378.132812 547.828125 C 381.125 546.640625 384.117188 545.214844 386.703125 543.398438 C 392.394531 539.734375 393.679688 531.582031 391.105469 525.667969 C 387.792969 519.429688 381.710938 517 375.179688 515.992188 C 375 507.644531 374.761719 499.28125 374.453125 490.933594 C 377.25 491.257812 379.824219 491.703125 381.863281 492.390625 C 385.597656 495.382812 388.4375 500.34375 387.613281 505.363281 C 386.464844 508.71875 384.117188 511.851562 382.757812 514.96875 C 384.871094 514.3125 386.714844 513.054688 388.449219 511.742188 C 397.945312 505.757812 393.484375 492.722656 386.578125 486.460938 C 383.191406 483.300781 378.664062 482.515625 374.160156 482.210938 C 374.117188 481.121094 374.089844 480.042969 374.046875 478.953125 C 374.382812 471.21875 374.734375 463.472656 374.675781 455.824219 C 374.300781 438.011719 373.222656 420.085938 372.539062 402.1875 C 379 400.972656 386.074219 396.859375 389.792969 391.28125 C 392.660156 385.773438 389.429688 379.0625 385.417969 375.035156 C 381.460938 371.34375 376.578125 369.945312 371.433594 369.554688 C 371.351562 360.507812 371.488281 351.445312 371.65625 342.371094 C 377.964844 343.042969 383.78125 345.070312 388.074219 349.417969 C 389.429688 350.703125 390.5625 352.382812 390.574219 354.328125 C 389.972656 355.824219 389.023438 357.207031 387.878906 358.339844 C 383.625 362.042969 379.347656 365.804688 374.789062 369.121094 C 382.855469 367.875 393.34375 364.953125 397.582031 357.066406 C 401.0625 346.886719 389.527344 338.652344 381.09375 335.703125 C 378.0625 334.75 374.941406 334.234375 371.796875 333.953125 C 371.949219 325.898438 372.078125 317.847656 372.0625 309.792969 C 371.882812 306.324219 371.65625 302.886719 371.476562 299.429688 C 379.304688 301.375 383.933594 310.433594 383.78125 318.25 C 382.101562 321.886719 379.109375 325.101562 377.542969 328.710938 C 381.445312 327.789062 385.261719 326.164062 388.171875 323.382812 C 391.679688 320.445312 390.703125 315.609375 389.960938 311.652344 C 388.410156 302.394531 381.25 293 371.601562 291.460938 C 371.433594 291.417969 371.210938 291.417969 371.027344 291.390625 C 370.355469 280.121094 369.519531 268.878906 367.742188 257.566406 C 367.292969 254.503906 366.75 251.445312 366.496094 248.351562 C 366.441406 247.890625 366.359375 247.417969 366.203125 246.96875 C 393.664062 219.5625 431.445312 204.894531 466.988281 190.453125 C 495.988281 179.726562 526.21875 172.273438 556.714844 166.835938 C 572.824219 163.96875 590.089844 164.667969 606.714844 165.03125 C 610.351562 164.988281 614.140625 165.03125 617.917969 165.3125 C 616.488281 165.605469 615.148438 166.136719 614.027344 167.253906 C 613.929688 167.351562 613.636719 167.617188 613.734375 167.773438 C 613.777344 167.855469 613.988281 167.84375 613.988281 167.730469 C 614.460938 167.605469 615.132812 167.6875 615.554688 167.703125 C 620.054688 168.863281 624.039062 170.136719 628.429688 172.148438 C 631.074219 172.917969 633.242188 174.847656 633.84375 177.628906 C 635.773438 183.964844 636.707031 190.464844 637.015625 197.066406 C 638.316406 211.0625 639.757812 224.976562 640.695312 239.054688 C 640.863281 260.628906 638.429688 282.792969 636.304688 304.351562 M 387.121094 569.375 C 383.570312 572.957031 379.164062 575.472656 374.832031 578.058594 C 374.691406 570.984375 374.734375 563.910156 374.902344 556.835938 C 383.976562 557.828125 391.289062 561.027344 387.121094 569.375 M 375.027344 547.492188 C 375.292969 540.238281 375.390625 532.980469 375.335938 525.738281 C 379.152344 526.113281 382.71875 527.175781 384.15625 530.839844 C 384.816406 534.601562 384.03125 537.914062 381.417969 540.824219 C 379.5 543.0625 377.570312 545.296875 375.699219 547.5625 C 375.472656 547.535156 375.25 547.523438 375.027344 547.492188 M 347.285156 549.003906 C 346.992188 542.070312 346.726562 535.132812 346.613281 528.199219 L 346.613281 527.765625 C 353.367188 525.679688 360.695312 525.023438 367.40625 525.359375 C 368.007812 525.402344 368.734375 525.402344 369.390625 525.402344 C 369.070312 532.617188 368.75 539.816406 368.316406 547.019531 C 361.367188 546.78125 354.09375 547.257812 347.285156 549.003906 M 370.875 490.683594 C 370.902344 490.976562 370.945312 491.257812 370.972656 491.535156 C 370.652344 499.507812 370.203125 507.449219 369.882812 515.417969 C 367.324219 515.265625 364.765625 515.222656 362.371094 515.179688 C 356.765625 514.902344 351.84375 516.074219 346.503906 517.640625 C 346.488281 509.683594 346.613281 501.351562 346.796875 492.792969 C 354.933594 490.949219 363.535156 490.261719 370.875 490.683594 M 345.496094 424.980469 C 346.699219 411.976562 348.53125 398.847656 348.738281 385.855469 C 348.78125 384.542969 348.753906 383.214844 348.78125 381.898438 C 350.375 381.535156 351.984375 381.1875 353.621094 380.894531 C 357.03125 380.851562 360.933594 380.054688 364.804688 379.550781 C 365.714844 396.359375 366.863281 413.136719 368.035156 429.832031 C 369.238281 447.183594 369.363281 464.648438 370.355469 482.027344 C 370.285156 482.015625 370.203125 482.015625 370.121094 482.015625 C 363.113281 481.453125 355.730469 482.140625 348.640625 483.621094 C 348.082031 483.734375 347.550781 483.929688 346.992188 484.054688 C 347.441406 463.097656 347.707031 441.925781 345.496094 424.980469 M 348.753906 344.777344 C 353.425781 343.488281 358.402344 342.523438 363.308594 342.191406 C 363.519531 351.304688 363.855469 360.421875 364.289062 369.566406 C 361.003906 369.761719 357.730469 370.113281 354.625 370.390625 C 352.976562 370.519531 351.003906 370.882812 348.90625 371.355469 C 348.992188 362.492188 348.949219 353.640625 348.753906 344.777344 M 362.75 298.914062 C 362.835938 304.449219 362.972656 310.003906 363.113281 315.664062 C 363.042969 321.691406 363.171875 327.746094 363.253906 333.785156 C 358.304688 334.050781 353.367188 334.808594 348.542969 335.742188 C 348.179688 324.402344 347.691406 313.078125 347.019531 301.753906 C 352.363281 300.117188 357.882812 299.164062 362.75 298.914062 M 345.203125 274.597656 C 344.964844 268.53125 344.183594 262.503906 343.148438 256.519531 C 345.550781 258.546875 348.277344 259.554688 351.089844 259.554688 C 355.355469 259.554688 359.660156 257.511719 362.863281 254.449219 C 362.289062 263.246094 362.234375 272.054688 362.835938 280.863281 C 362.738281 284.175781 362.777344 287.449219 362.777344 290.734375 C 357.648438 290.75 352.027344 291.515625 346.433594 292.972656 C 346.042969 286.847656 345.648438 280.722656 345.203125 274.597656 M 372.078125 390.609375 C 371.867188 386.808594 371.824219 383.019531 371.714844 379.230469 C 375.53125 379.464844 378.984375 380.683594 381.488281 384.109375 C 384.15625 387.746094 381.863281 390.527344 379.472656 393.464844 C 377.136719 396.148438 375.011719 399.042969 372.523438 401.601562 C 372.382812 397.9375 372.160156 394.261719 372.078125 390.609375 M 155.109375 244.453125 C 154.886719 243.445312 154.691406 242.4375 154.453125 241.433594 C 149.238281 221.828125 145.632812 201.609375 141.980469 181.574219 C 136.585938 147.316406 127.746094 113.214844 132.125 78.230469 C 133.773438 66.707031 136.90625 63.644531 148.792969 64.875 C 155.238281 69.015625 157.335938 79.207031 159.851562 86.28125 C 167.246094 117.199219 173.46875 148.894531 178.65625 180.355469 C 182.515625 200.433594 185.105469 220.710938 186.628906 241.070312 C 177.777344 247.820312 164.898438 250.183594 155.109375 244.453125 M 135.382812 192.953125 C 133.507812 189.5 132.277344 185.808594 131.171875 182.046875 C 132.738281 181.839844 134.234375 181.265625 135.550781 180.539062 C 136.527344 186.636719 137.507812 192.746094 138.613281 198.828125 C 137.1875 196.171875 135.886719 193.933594 135.382812 192.953125 M 109.082031 158.109375 C 106.160156 141.011719 106.296875 123.671875 110.046875 106.570312 C 111.652344 101.84375 113.023438 96.363281 117.035156 92.910156 C 118.8125 91.273438 120.546875 89.316406 123.0625 88.941406 C 118.308594 96.125 117.667969 104.933594 116.714844 113.253906 C 115.457031 125.183594 114.210938 137.261719 115.484375 149.230469 C 117.386719 162.445312 120.894531 175.421875 125.398438 187.976562 C 128.503906 196.730469 136.390625 202.796875 139.3125 211.621094 C 119.105469 204.070312 112.339844 177.421875 109.082031 158.109375 M 124.601562 92.085938 C 124.574219 93.609375 124.574219 95.148438 124.503906 96.628906 C 124.070312 121.757812 129.636719 146.839844 134.066406 171.503906 C 134.445312 174.105469 134.933594 176.691406 135.355469 179.292969 C 133.800781 178.523438 131.902344 178.316406 130.222656 178.820312 C 130.152344 178.554688 130.054688 178.300781 130 178.035156 C 123.929688 159.074219 121.078125 138.5625 121.691406 118.484375 C 122.042969 110.289062 121.722656 100.179688 124.601562 92.085938 M 188.222656 349.167969 C 187.578125 348.664062 187.160156 348.773438 186.90625 349.277344 C 186.460938 349.097656 186 349.125 185.550781 349.082031 C 183.761719 344.957031 182.179688 340.722656 180.210938 336.695312 C 181.035156 337.296875 181.902344 337.882812 182.976562 338.066406 C 183.648438 338.148438 184.304688 338.203125 184.921875 338.203125 C 186.109375 338.203125 186.949219 337.714844 187.929688 337.40625 C 187.929688 341.324219 188.066406 345.238281 188.222656 349.167969 M 186.667969 351.417969 C 186.515625 351.082031 186.335938 350.761719 186.179688 350.425781 C 186.335938 350.46875 186.472656 350.496094 186.628906 350.523438 C 186.613281 350.804688 186.640625 351.097656 186.667969 351.417969 M 90.902344 578.492188 C 103.488281 575.429688 116.519531 576.355469 129.339844 575.949219 C 146.386719 573.949219 163.332031 576.816406 180.265625 578.714844 C 206.511719 582.632812 234.015625 585.132812 259.40625 594.011719 C 278.605469 602.390625 297.464844 612.722656 312.917969 627.097656 C 300.125 622.539062 288.628906 615.324219 276.714844 608.988281 C 265.125 603.746094 252.695312 600.667969 240.472656 597.285156 C 217.125 591.550781 193.128906 590.125 169.121094 590.125 C 156.105469 590.125 143.074219 590.546875 130.136719 590.921875 C 113.847656 591.117188 98.007812 594.894531 81.703125 594.910156 C 80.261719 591.652344 79.59375 588.097656 79.269531 584.574219 L 79.242188 584.601562 C 80.277344 578.914062 86.277344 579.472656 90.902344 578.492188 M 741.855469 343.796875 C 738.375 329.886719 732.390625 323.773438 717.765625 323.117188 C 701.320312 323.605469 705.964844 346.902344 693.953125 353.515625 C 691.5625 354.621094 689.085938 353.292969 686.808594 352.535156 C 682.710938 351 678.515625 349.867188 674.179688 349.292969 C 671.132812 348.648438 666.980469 348.664062 663.933594 350.003906 C 663.960938 349.195312 663.933594 348.398438 663.945312 347.585938 C 665.105469 340.777344 666.03125 333.84375 666.714844 327.074219 C 667.804688 318.167969 665.820312 308.980469 667.035156 300.03125 C 669.148438 282.175781 669.316406 264.195312 667.75 246.242188 C 667.386719 237.839844 666.296875 229.574219 666.601562 221.128906 C 667.175781 214.53125 666.925781 207.957031 664.296875 201.765625 C 662.84375 197.472656 659.5 193.933594 655.066406 192.703125 C 651.570312 191.542969 647.8125 189.960938 644.105469 189.390625 C 643.363281 185.097656 642.457031 180.816406 641.085938 176.636719 C 639.757812 170.484375 634.246094 166.683594 628.191406 166.136719 C 627.3125 165.96875 626.363281 165.773438 625.410156 165.589844 C 622.277344 162.429688 617.621094 160.5 613.441406 158.949219 C 553.625 146.617188 433.699219 183.65625 385.808594 221.046875 C 377.402344 227.226562 369.351562 234.582031 364.035156 243.710938 C 363.308594 245.164062 362.609375 246.6875 362.5 248.339844 C 362.472656 248.84375 362.511719 249.722656 363.085938 249.976562 C 363.03125 250.589844 363.042969 251.191406 362.988281 251.808594 C 361.574219 251.863281 360.164062 251.890625 358.722656 252.042969 C 354.320312 252.535156 349.871094 253.007812 345.875 250.871094 C 344.628906 250.171875 343.609375 249.179688 342.503906 248.324219 C 342.558594 247.152344 342.449219 245.992188 341.847656 244.859375 C 336.644531 235.53125 329.011719 228.5 321.125 221.285156 C 292.992188 198.449219 258.078125 183.375 222.378906 177.53125 C 212.230469 175.085938 201.855469 174.066406 191.453125 175.167969 C 189.03125 175.378906 185.941406 176.007812 183.886719 177.351562 C 182.894531 172.792969 181.914062 168.234375 180.910156 163.691406 C 176.226562 135.890625 169.148438 108.558594 164.5625 80.746094 C 162.898438 74.46875 160.535156 67.265625 156.773438 61.632812 C 155.542969 59.5625 153.613281 58.039062 151.265625 57.382812 C 144.066406 55.789062 134.375 56.695312 129.675781 63.058594 C 125.34375 70.328125 124.851562 78.800781 124.714844 87.191406 C 124.585938 87.289062 124.433594 87.359375 124.320312 87.472656 C 100.707031 82.96875 102.871094 138.550781 104.746094 153.105469 C 105.949219 163.199219 108.128906 174.429688 112.03125 184.761719 C 104.46875 183.910156 95.460938 188.632812 88.332031 191.222656 C 80.515625 194.773438 61.75 202.03125 59.414062 211.71875 C 59.277344 211.425781 59.09375 211.257812 58.8125 211.523438 C 57.90625 214.375 57.625 217.328125 57.484375 220.320312 C 57.082031 220.164062 56.632812 220.09375 56.128906 220.191406 C 47.375 223.269531 39.546875 228.722656 32.359375 234.550781 C 25.746094 239.390625 23.214844 247.515625 23.160156 255.441406 C 23.523438 273.425781 22.835938 291.53125 23.496094 309.539062 C 23.367188 316.601562 23.59375 323.691406 24.558594 330.722656 C 26.488281 361.597656 30.121094 392.164062 33.800781 422.894531 C 36.246094 441.101562 38.230469 459.460938 40.078125 477.679688 C 41.113281 491.578125 43.265625 504.707031 43.167969 518.859375 C 42.511719 534.964844 42.371094 551.171875 43.53125 567.265625 C 44.078125 584.183594 45.726562 601.160156 52.1875 616.917969 C 53.753906 620.0625 54.800781 624.382812 58.449219 625.613281 C 59.414062 625.667969 60.394531 625.699219 61.359375 625.699219 C 65.859375 625.699219 70.351562 625.109375 74.839844 624.425781 C 77.257812 624.398438 79.703125 624.117188 82.09375 623.878906 C 93.335938 623.109375 104.703125 621.976562 116.042969 620.539062 C 146.332031 619.78125 176.785156 616.316406 206.832031 621.867188 C 229.273438 626.480469 253.128906 629.78125 273.222656 641.792969 C 305.644531 668.511719 308.511719 671.183594 351.453125 674.957031 L 351.367188 674.957031 C 352.125 674.972656 352.851562 674.984375 353.605469 674.984375 C 367.839844 674.984375 382.703125 672.105469 395.257812 665.40625 C 401.859375 661.882812 407.257812 656.515625 413.898438 653.074219 C 417.085938 651.734375 420.316406 650.460938 423.492188 649.144531 C 463.71875 632.117188 508.824219 633.386719 551.75 633.667969 C 565.398438 633.765625 578.625 635.625 592.578125 636.324219 C 604.382812 636.953125 616.601562 641.707031 628.390625 638.40625 C 632.917969 636.96875 639.632812 634.644531 638.933594 628.941406 C 638.148438 629.992188 637.40625 631.011719 636.261719 631.710938 C 635.003906 632.214844 633.492188 632.15625 632.136719 632.339844 C 621.496094 633.808594 610.96875 631.988281 600.425781 630.492188 C 581.101562 629.082031 561.679688 626.648438 542.144531 626.535156 C 515.171875 625.867188 488.171875 626.789062 461.453125 630.6875 C 442.578125 633.375 423.769531 640.769531 408.710938 652.570312 C 408.683594 652.570312 408.667969 652.570312 408.65625 652.585938 C 401.410156 653.941406 395.527344 658.835938 389.078125 662.121094 C 372.734375 668.761719 354.625 671.042969 337.121094 667.394531 C 326.410156 666.273438 315.433594 665.421875 306.164062 659.351562 C 298.738281 655.367188 293.089844 649.203125 286.324219 644.027344 C 275.976562 633.554688 261.867188 628.480469 248.179688 623.824219 C 217.066406 614.859375 184.433594 608.847656 151.921875 611.800781 C 125.789062 611.617188 100.132812 615.15625 74.964844 622.019531 C 69.902344 621.683594 64.796875 621.460938 59.722656 621.125 C 46.578125 596.503906 49.363281 567 48.578125 539.902344 C 50.355469 516.632812 48.929688 493.324219 46.257812 470.226562 C 44.414062 446.582031 41.152344 422.699219 37.867188 399.140625 C 34.539062 375.59375 31.226562 351.867188 29.324219 328.136719 C 27.703125 321.019531 27.1875 313.554688 26.417969 306.242188 C 27.914062 291.964844 29.898438 277.617188 29.855469 263.382812 C 30.050781 257.386719 29.617188 251.09375 31.941406 245.429688 C 37.03125 237.027344 45.976562 231.953125 53.667969 225.941406 C 54.800781 225.03125 56.199219 224.234375 57.359375 223.15625 C 57.316406 226.457031 57.375 229.785156 57.082031 233.042969 C 56.535156 245.597656 55.738281 258.167969 55.976562 270.765625 C 55.976562 270.597656 55.960938 270.472656 55.960938 270.332031 C 55.136719 321.355469 61.386719 372.28125 66.855469 423.007812 C 67.59375 445.742188 68.460938 468.449219 71.089844 491.101562 C 72.964844 511.195312 71.945312 531.191406 73.214844 551.421875 C 73.84375 560.734375 69.691406 570.046875 72.082031 579.21875 C 72.699219 581.472656 73.285156 584.101562 74.335938 586.394531 C 75.1875 591.105469 74.640625 597.734375 79.59375 600.292969 C 88.835938 601.675781 98.1875 599.339844 107.417969 598.542969 C 134.136719 596.433594 161.082031 597.105469 187.929688 598.347656 C 215.695312 598.699219 242.851562 605.5625 268.746094 615.324219 C 279.835938 619.980469 289.382812 627.515625 300.136719 632.871094 C 308.316406 637.023438 316.523438 641.246094 324.859375 644.992188 C 327.738281 645.789062 330.800781 645.832031 333.34375 647.621094 C 333.875 647.859375 334.574219 648.082031 335.191406 648.082031 C 335.359375 648.082031 335.527344 648.070312 335.679688 648.027344 C 335.429688 647.441406 335.136719 646.769531 335.148438 646.085938 C 346.488281 651.328125 326.4375 631.082031 324.59375 629.011719 C 310.289062 611.589844 290.574219 600.527344 270.816406 590.222656 C 247.003906 579.332031 220.660156 575.890625 194.75 573.136719 L 194.78125 573.136719 C 170.757812 570.382812 146.261719 566.328125 122.167969 570.914062 C 110.351562 570.523438 98.582031 572.242188 87.03125 574.550781 C 84.109375 574.507812 81.296875 575.417969 78.992188 576.914062 C 79.480469 571.726562 79.761719 566.523438 80.09375 561.335938 C 79.425781 540 80.558594 518.328125 79.425781 496.890625 C 73.441406 428.9375 65.722656 361.09375 62.855469 292.875 C 62.867188 276.75 61.667969 260.085938 61.21875 243.851562 C 60.714844 233.992188 60.828125 224.246094 59.988281 214.417969 C 59.933594 214.277344 59.875 213.96875 59.820312 213.578125 C 60.730469 211.816406 63.484375 210.503906 64.925781 209.148438 C 76.152344 202.042969 88.457031 196.800781 100.746094 191.78125 C 104.859375 190.394531 109.066406 189.082031 112.914062 186.984375 C 118.226562 199.917969 126.546875 211.074219 140.09375 215.832031 C 140.386719 215.871094 140.652344 215.886719 140.90625 215.886719 C 141.351562 215.886719 141.519531 215.632812 141.871094 215.523438 C 145.699219 234.664062 149.9375 253.707031 154.203125 272.792969 C 156.175781 281.421875 159.347656 290.078125 161.417969 298.746094 C 164.507812 309.902344 167.597656 321.804688 173.316406 331.96875 C 176.351562 334.148438 175.679688 329.898438 175.21875 328.402344 C 171.429688 313.132812 169.261719 297.964844 164.355469 282.847656 C 161.09375 272.570312 158.96875 262.054688 156.675781 251.5 C 160.480469 253.933594 165.375 255.246094 169.09375 255.191406 C 169.667969 255.261719 170.308594 255.289062 171.023438 255.289062 C 175.679688 255.289062 182.515625 253.679688 187.296875 250.6875 C 187.664062 257.0625 187.96875 263.453125 188.109375 269.859375 C 188.65625 282.175781 188.863281 294.605469 189.394531 306.996094 C 189.789062 315.457031 192.121094 332.375 180.28125 333.367188 C 179.484375 333.253906 178.839844 333.015625 178.054688 332.722656 C 177.929688 332.515625 177.847656 332.289062 177.707031 332.082031 C 175.0625 328.988281 177.425781 337.785156 180.515625 346.578125 C 183.230469 354.257812 186.515625 361.945312 187.535156 361.722656 C 188.039062 362.101562 188.570312 362.253906 189.074219 362.253906 C 190.792969 362.253906 192.359375 360.492188 192.976562 358.871094 C 194.960938 351.738281 192.375 343.644531 188.90625 337.140625 C 200.554688 332.050781 196.078125 304.703125 196.386719 294.441406 C 195.925781 278.722656 196.261719 262.714844 194.738281 246.941406 C 193.382812 223.644531 188.933594 200.742188 184.011719 177.953125 C 191.046875 180.273438 198.777344 179.195312 206.078125 180.160156 C 227.554688 183.53125 248.515625 188.984375 268.832031 197.078125 C 292.109375 206.617188 314.621094 218.933594 330.617188 238.914062 C 334.140625 242.3125 335.960938 247.136719 338.867188 250.941406 C 339.164062 251.777344 339.652344 252.660156 340.195312 253.457031 C 339.429688 267.242188 339.300781 281.210938 339.429688 295.207031 C 329.710938 298.957031 321.390625 304.882812 318.972656 313.007812 C 315.769531 319.621094 318.257812 328.234375 325.066406 331.421875 C 326.117188 331.941406 327.164062 332.136719 328.214844 332.136719 C 331.082031 332.136719 333.90625 330.695312 336.742188 330.179688 C 334.253906 328.949219 331.109375 328.207031 328.3125 327.523438 C 323.136719 324.390625 324.285156 317.859375 327.234375 313.511719 C 329.820312 309.917969 334.296875 306.941406 339.496094 304.578125 C 339.566406 310.324219 339.636719 316.070312 339.679688 321.804688 C 339.679688 321.761719 339.664062 321.734375 339.664062 321.691406 C 339.679688 327.101562 339.777344 332.667969 339.832031 338.191406 C 328.816406 342.050781 315.9375 349.390625 324.019531 361.414062 C 325.808594 364.308594 330.578125 368.769531 333.765625 365.402344 C 334.339844 364.476562 334.226562 363.316406 333.597656 362.449219 C 327.683594 355.429688 328.535156 352.4375 336.839844 348.859375 C 337.792969 348.453125 338.898438 348.078125 339.929688 347.671875 C 339.972656 350.664062 340 353.628906 340.027344 356.605469 C 339.902344 362.40625 340.097656 368.226562 340.363281 374.027344 C 329.820312 378.152344 319.53125 385.535156 322.371094 395.433594 C 324.1875 400.132812 329.835938 404.371094 334.574219 401.027344 L 334.574219 401.042969 C 334.574219 401.027344 334.605469 401.027344 334.617188 401.015625 C 334.617188 401.027344 334.703125 400.972656 334.644531 400.945312 C 333.960938 400.523438 333.375 400.316406 332.773438 399.726562 C 331.695312 398.1875 330.675781 396.457031 329.78125 394.75 C 328.578125 392.441406 331.023438 390.679688 332.589844 389.351562 C 335.136719 387.214844 337.945312 385.703125 340.882812 384.457031 C 341.300781 391.503906 341.75 398.554688 341.945312 405.601562 C 342.015625 413.234375 342.265625 421.105469 342.785156 428.980469 C 341.972656 447.964844 340.8125 466.925781 339.847656 485.902344 C 335.667969 487.1875 331.582031 488.765625 327.835938 491.214844 C 323.207031 493.800781 318.777344 497.253906 316.679688 502.300781 C 314.414062 508.71875 316.832031 516.832031 322.800781 520.339844 C 323.667969 520.957031 324.691406 521.207031 325.738281 521.207031 C 326.578125 521.207031 327.445312 521.039062 328.269531 520.746094 C 328.339844 520.828125 328.285156 521.121094 328.453125 521.039062 C 328.84375 518.898438 325.90625 517.460938 324.886719 515.769531 C 322.871094 513.097656 322.425781 509.476562 323.011719 506.148438 C 325.683594 501.128906 331.933594 497.449219 339.414062 494.863281 C 339.0625 503.335938 338.925781 511.824219 338.882812 520.3125 C 333.304688 522.71875 327.949219 526.199219 324.605469 531.246094 C 322.242188 534.574219 319.921875 538.546875 320.144531 542.769531 C 320.507812 547.828125 323.472656 553.855469 329.066406 554.429688 C 329.179688 554.441406 329.304688 554.457031 329.402344 554.457031 C 331.207031 554.457031 332.617188 553.03125 334.101562 552.386719 C 334.101562 552.386719 334.101562 552.375 334.085938 552.375 C 333.09375 551.058594 330.4375 550.011719 329.109375 548.472656 C 326.660156 545.019531 327.835938 541.144531 330.3125 537.957031 C 332.675781 535.105469 335.597656 532.925781 338.769531 531.132812 C 338.769531 531.398438 338.757812 531.664062 338.769531 531.929688 C 338.855469 538.445312 339.289062 545.046875 339.652344 551.632812 C 332.578125 554.722656 326.59375 559.53125 322.96875 566.664062 C 321.277344 572.003906 320.566406 577.625 325.765625 581.09375 C 326.046875 581.945312 326.199219 581.5 326.3125 580.757812 C 327.863281 581.820312 329.722656 582.492188 331.554688 582.589844 C 331.765625 582.617188 332.003906 582.617188 332.226562 582.617188 C 333.207031 582.617188 334.28125 582.464844 334.941406 582.003906 C 332.199219 580.828125 329.960938 578.773438 327.988281 576.480469 C 327.457031 575.347656 327.332031 574.089844 327.347656 572.800781 C 329.066406 567.054688 334.183594 563.335938 340.070312 560.929688 C 340.726562 571.417969 341.457031 581.917969 341.832031 592.335938 C 340.699219 611.167969 342.699219 629.792969 342.574219 648.628906 C 347.214844 635.570312 348.207031 621.671875 348.027344 607.578125 C 349.046875 591.246094 348.417969 574.898438 347.691406 558.539062 C 349.578125 558.078125 351.4375 557.671875 353.144531 557.378906 C 356.066406 556.972656 361.839844 556.402344 367.882812 556.441406 C 367.097656 576.101562 368.371094 595.707031 367.925781 615.378906 C 367.894531 623.433594 369.546875 631.960938 372.480469 639.539062 C 372.273438 639.820312 371.992188 640.058594 371.796875 640.351562 C 371.460938 640.421875 371.417969 640.867188 371.601562 641.132812 C 371.601562 641.246094 371.585938 641.359375 371.601562 641.457031 L 371.628906 641.398438 C 371.742188 642.492188 372.414062 642.9375 373.503906 642.9375 C 374.246094 642.9375 375.207031 642.699219 376.300781 642.308594 C 375.585938 642.8125 374.84375 643.230469 374.144531 643.761719 C 374.035156 643.679688 373.910156 643.59375 373.769531 643.539062 L 373.726562 643.539062 C 371.476562 644.796875 373.027344 647.523438 374.832031 648.378906 C 375.851562 648.867188 376.859375 649.078125 377.867188 649.078125 C 381.195312 649.078125 384.382812 646.753906 387.066406 644.867188 C 393.007812 640.308594 399.734375 637.050781 406.597656 634.128906 C 427.9375 624.410156 451.425781 621.476562 474.300781 617.335938 C 495.667969 613.882812 517.285156 613.796875 538.804688 612.050781 C 541.238281 611.96875 544.929688 611.96875 549.445312 611.96875 C 572.136719 611.980469 615.425781 611.980469 621.609375 603.355469 C 622.152344 601.925781 621.46875 600.292969 621.132812 598.894531 C 620.824219 597.691406 620.585938 596.40625 620.320312 595.144531 C 627.101562 588.785156 628.710938 579.457031 629.996094 570.675781 C 634.875 550.21875 634.933594 528.953125 635.128906 508.019531 C 635.042969 494.25 635.785156 479.859375 634.988281 465.527344 C 634.652344 456.859375 633.773438 448.234375 632.710938 439.632812 C 637.9375 393.796875 638.234375 347.054688 642.917969 301.125 C 645.753906 273.648438 650.230469 245.738281 646.71875 218.082031 C 646.273438 209.230469 645.769531 200.351562 644.441406 191.625 C 647.210938 193.289062 649.921875 195.066406 652.773438 196.632812 C 654.996094 197.75 657.386719 199.402344 658.578125 201.820312 C 662.144531 208.152344 661.960938 215.550781 661.414062 222.582031 C 661.078125 230.46875 661.34375 237.824219 661.527344 245.90625 C 662.546875 264.753906 661.484375 284.066406 659.667969 302.925781 C 659.640625 319.0625 661.835938 335.28125 661.808594 351.402344 C 660.519531 352.621094 659.75 354.296875 660.058594 356.675781 C 660.074219 356.746094 659.988281 356.996094 660.128906 356.914062 C 660.449219 356.257812 661.148438 355.878906 661.695312 355.402344 C 661.34375 357.402344 660.980469 359.429688 660.632812 361.386719 C 657.625 371.777344 656.800781 382.261719 656.84375 392.792969 C 656.800781 392.820312 656.757812 392.804688 656.71875 392.835938 C 656.757812 392.863281 656.800781 392.902344 656.84375 392.933594 C 656.898438 406.816406 658.480469 420.785156 658.953125 434.765625 C 659.429688 451.433594 657.375 467.917969 655.597656 484.53125 C 655.09375 505.769531 651.835938 526.6875 649.152344 547.71875 L 649.152344 547.691406 C 649.140625 547.71875 649.140625 547.757812 649.140625 547.789062 L 649.140625 547.816406 C 647.417969 566.859375 642.105469 585.386719 639.464844 604.320312 C 638.386719 610.316406 638.832031 617.6875 637.238281 623.753906 C 635.632812 626.566406 632.695312 628.4375 630.375 630.746094 C 630.222656 630.660156 630.054688 630.550781 629.941406 630.523438 C 629.675781 630.675781 629.535156 631.289062 629.6875 631.667969 C 629.871094 632.171875 630.320312 632.324219 630.792969 632.324219 C 632.429688 632.117188 634.011719 631.515625 635.546875 630.914062 C 647.097656 625.726562 644.761719 611.058594 647.335938 600.683594 C 652.203125 576.953125 656.128906 553.253906 658.6875 529.121094 C 661.34375 512.621094 661.945312 495.84375 663.109375 479.121094 C 664.421875 465.890625 666.394531 452.707031 666.15625 439.339844 C 666.070312 425.203125 664.871094 411.390625 663.988281 397.546875 C 674.503906 403.082031 687.058594 404.074219 698.691406 405.558594 C 726.769531 405.167969 749.769531 369.988281 741.855469 343.796875 " fill-opacity="1" fill-rule="nonzero"/><path fill="#5ce1e6" d="M 723.613281 351.703125 C 724.496094 354.066406 722.816406 357.046875 721.40625 359.074219 C 720.371094 360.136719 718.746094 360.667969 717.320312 360.21875 C 714.652344 359.8125 715.628906 356.890625 716.007812 355.058594 C 717.082031 351.285156 720.804688 349.578125 724.496094 349.703125 C 724.496094 349.96875 724.296875 351.621094 724.71875 350.765625 C 727.765625 348 723.207031 346.207031 720.746094 345.929688 C 708.835938 346.011719 703.5625 366.257812 718.160156 367.195312 C 718.371094 367.222656 718.566406 367.222656 718.777344 367.222656 C 723.976562 367.222656 727.90625 361.980469 726.757812 356.890625 C 726.492188 354.878906 725.792969 352.375 723.613281 351.703125 " fill-opacity="1" fill-rule="nonzero"/></svg>